<svg version="1.1" id="Layer_1" xmlns="http://www.w3.org/2000/svg" xmlns:xlink="http://www.w3.org/1999/xlink" x="0px" y="0px"
	 width="100%" viewBox="0 0 1024 1024" enable-background="new 0 0 1024 1024" xml:space="preserve">
<path fill="#D3793B" opacity="1.000000" stroke="none" 
	d="
M700.000000,1025.000000 
	C466.666656,1025.000000 233.833328,1025.000000 1.000000,1025.000000 
	C1.000000,683.666687 1.000000,342.333344 1.000000,1.000000 
	C342.333344,1.000000 683.666687,1.000000 1025.000000,1.000000 
	C1025.000000,342.333344 1025.000000,683.666687 1025.000000,1025.000000 
	C916.833313,1025.000000 808.666687,1025.000000 700.000000,1025.000000 
M303.386230,814.403748 
	C303.619232,814.770691 303.852234,815.137573 304.728088,815.363281 
	C309.161560,817.925842 313.595032,820.488403 318.714142,823.503174 
	C320.027405,823.656555 321.340668,823.944031 322.653961,823.944214 
	C449.605652,823.967224 576.557373,823.974792 703.508972,823.906677 
	C705.350037,823.905701 707.190491,822.940308 709.555664,821.987427 
	C719.469604,819.908997 724.797302,813.340515 727.876099,803.560181 
	C728.235779,802.171753 728.905212,800.784119 728.909058,799.394653 
	C728.976318,774.908691 728.993408,750.422302 728.897400,725.936523 
	C728.890869,724.276306 727.900879,722.619934 726.908508,720.711914 
	C726.247559,720.157959 725.586548,719.604004 724.837463,718.494812 
	C723.543396,718.342285 722.249268,718.056274 720.955200,718.056152 
	C582.708313,718.037964 444.461365,718.037170 306.214478,718.089233 
	C304.485107,718.089905 302.756012,718.783752 300.861786,719.610229 
	C300.633759,719.871338 300.346405,720.001038 299.739319,719.877319 
	C299.434052,719.922913 299.310333,720.130554 299.216736,720.303284 
	C299.216736,720.303284 299.420959,720.161926 298.661224,720.460815 
	C298.112305,721.933960 297.090790,723.405273 297.084900,724.880615 
	C296.987152,749.334778 296.813721,773.792725 297.211029,798.240906 
	C297.280090,802.490173 299.879669,806.698425 301.135864,810.916260 
	C301.135864,810.916260 301.152618,810.742249 301.208435,811.408142 
	C301.606995,811.912109 302.005585,812.416077 302.175232,813.063416 
	C302.175232,813.063416 302.030945,812.835083 302.392853,813.248108 
	C302.661102,813.501465 302.929321,813.754822 303.033478,814.049988 
	C303.033478,814.049988 302.990387,813.886230 303.386230,814.403748 
M357.984711,288.055206 
	C357.984711,288.055206 358.018890,288.150299 357.455322,287.652924 
	C353.099762,286.805359 348.744232,285.957794 344.494873,285.052063 
	C344.494873,285.052063 344.550934,285.159393 343.798096,284.745117 
	C336.215149,284.458252 328.632172,284.171356 320.358032,284.055573 
	C319.889954,284.000244 319.421906,283.944916 318.275696,283.435181 
	C311.200958,284.054047 304.126190,284.672882 296.619232,285.814301 
	C295.730011,285.837463 294.840820,285.860596 293.509888,285.500153 
	C292.688141,285.747559 291.866425,285.994995 290.634094,286.773529 
	C289.754059,286.845245 288.874023,286.916962 287.524261,286.598145 
	C286.030060,287.144196 284.535889,287.690277 282.549927,288.764343 
	C272.955292,292.768341 262.868622,295.893097 253.856155,300.937256 
	C223.986145,317.654968 203.336700,342.340881 191.917847,375.425964 
	C191.218781,376.883759 190.342773,378.284119 189.848068,379.808228 
	C184.911865,395.016052 185.302475,410.776337 186.181595,426.351624 
	C186.793976,437.201324 189.493881,447.944580 191.496048,458.691681 
	C191.783508,460.234650 193.392563,461.531403 194.899765,463.544128 
	C201.925735,483.373718 213.705826,500.009888 229.244843,514.003296 
	C245.922348,529.022095 265.343994,538.980713 287.507538,545.126465 
	C288.056458,545.484680 288.560822,545.967651 289.161102,546.182068 
	C296.998535,548.981873 297.005035,548.972412 297.005188,557.315674 
	C297.005859,596.479431 296.976227,635.643311 297.084198,674.806763 
	C297.089874,676.866211 298.257782,678.922546 299.205414,681.485962 
	C299.810455,682.004395 300.415497,682.522827 301.675964,683.544922 
	C303.321869,683.697449 304.967773,683.983276 306.613708,683.983521 
	C444.752594,684.002502 582.891479,684.002991 721.030396,683.954468 
	C722.660461,683.953857 724.290222,683.299316 726.203491,682.438110 
	C726.718018,681.860840 727.232544,681.283569 728.306641,680.737976 
	C728.526062,678.997559 728.935242,677.257385 728.936890,675.516785 
	C728.976501,635.075989 728.915833,594.635010 729.105042,554.195068 
	C729.117310,551.577332 730.991516,548.968201 732.644531,546.011841 
	C758.062439,541.787842 780.109558,530.655701 798.947754,513.219910 
	C811.621582,501.489594 821.345032,487.532471 829.385010,471.622986 
	C829.894592,470.030518 830.404114,468.438049 830.935120,466.943481 
	C830.935120,466.943481 830.836426,466.960999 831.480652,466.663422 
	C832.991272,463.043640 835.093872,459.549225 835.892578,455.778595 
	C837.696472,447.262848 839.280334,438.653503 840.154968,430.001465 
	C840.978943,421.851105 840.877319,413.597992 840.938049,405.388275 
	C840.948730,403.940918 839.755859,402.484680 838.972412,400.216705 
	C836.441589,389.582245 835.177734,378.441650 831.165527,368.399017 
	C811.441406,319.027679 774.055359,292.125122 721.547668,284.110474 
	C720.675537,283.752594 719.806824,283.093811 718.930786,283.084106 
	C711.487610,283.001770 704.042114,282.977203 696.600037,283.099701 
	C695.412109,283.119263 694.237610,283.957520 692.422180,284.927460 
	C681.992371,286.530029 671.562561,288.132599 660.906494,289.769928 
	C660.461853,288.761993 659.901855,287.574402 659.407593,286.360107 
	C641.178162,241.576187 609.938965,209.896622 564.613098,192.533051 
	C558.065613,190.024796 551.225891,188.279144 543.802063,185.776062 
	C534.619873,184.524261 525.467468,182.675964 516.245728,182.214615 
	C509.219604,181.863098 502.105469,183.271286 494.635223,184.046860 
	C494.635223,184.046860 494.212677,184.062668 493.297363,183.994202 
	C485.797272,185.151825 478.274200,186.186447 470.817627,187.577286 
	C469.429504,187.836212 468.308380,189.526794 466.499939,190.946640 
	C437.301727,200.292816 413.073669,217.034424 393.297974,240.323074 
	C381.403839,254.330078 372.143219,269.921021 365.674927,287.150696 
	C364.566345,290.103546 364.471985,290.068115 360.860291,288.720154 
	C359.870361,288.510712 358.880463,288.301300 357.984711,288.055206 
z"/>
<path fill="#FFFFFE" opacity="1.000000" stroke="none" 
	d="
M318.953827,283.889587 
	C319.421906,283.944916 319.889954,284.000244 321.157104,284.015289 
	C329.487793,284.369812 337.019348,284.764587 344.550934,285.159393 
	C344.550934,285.159393 344.494873,285.052063 344.652679,285.435181 
	C349.213287,286.595642 353.616089,287.372955 358.018890,288.150269 
	C358.018890,288.150299 357.984711,288.055206 358.142212,288.427795 
	C359.379700,288.896759 360.459656,288.993164 361.539642,289.089539 
	C364.471985,290.068115 364.566345,290.103546 365.674927,287.150696 
	C372.143219,269.921021 381.403839,254.330078 393.297974,240.323074 
	C413.073669,217.034424 437.301727,200.292816 467.181030,190.624908 
	C476.645660,188.223022 485.429169,186.142853 494.212677,184.062683 
	C494.212677,184.062668 494.635223,184.046860 495.297028,184.024460 
	C504.228912,184.001068 512.511475,183.716141 520.765442,184.080582 
	C528.699585,184.430908 536.603943,185.453445 544.521423,186.180603 
	C551.225891,188.279144 558.065613,190.024796 564.613098,192.533051 
	C609.938965,209.896622 641.178162,241.576187 659.407593,286.360107 
	C659.901855,287.574402 660.461853,288.761993 660.906494,289.769928 
	C671.562561,288.132599 681.992371,286.530029 693.201416,284.609802 
	C703.299194,284.446136 712.617676,284.600128 721.936218,284.754150 
	C774.055359,292.125122 811.441406,319.027679 831.165527,368.399017 
	C835.177734,378.441650 836.441589,389.582245 838.973633,401.086487 
	C840.100708,424.105072 838.871704,445.959106 830.836426,466.960999 
	C830.836426,466.960999 830.935120,466.943481 830.656860,467.124084 
	C829.820007,468.843475 829.261414,470.382263 828.702881,471.921021 
	C821.345032,487.532471 811.621582,501.489594 798.947754,513.219910 
	C780.109558,530.655701 758.062439,541.787842 731.883179,546.182129 
	C729.923279,546.656921 728.724731,546.961365 727.568970,547.254944 
	C727.568970,557.628235 727.555969,567.589050 727.571350,577.549866 
	C727.624634,611.935364 727.687683,646.320801 727.747070,680.706299 
	C727.232544,681.283569 726.718018,681.860840 725.598755,682.712402 
	C720.494263,682.990112 715.994507,682.995911 711.494812,682.996399 
	C574.670044,683.011658 437.845306,683.026428 301.020538,683.041260 
	C300.415497,682.522827 299.810455,682.004395 299.072327,680.766479 
	C298.939270,635.714722 298.939270,591.382446 298.939270,546.802063 
	C294.813538,546.000854 290.942078,545.248962 287.070587,544.497131 
	C265.343994,538.980713 245.922348,529.022095 229.244843,514.003296 
	C213.705826,500.009888 201.925735,483.373718 194.558243,462.907867 
	C192.128998,453.284088 189.387817,444.389191 188.097794,435.288605 
	C185.834885,419.324646 186.787994,403.294037 189.400146,387.200104 
	C189.685318,386.692963 189.746964,386.348022 189.889038,385.616333 
	C190.842819,381.833374 191.716156,378.437195 192.589508,375.040985 
	C203.336700,342.340881 223.986145,317.654968 253.856155,300.937256 
	C262.868622,295.893097 272.955292,292.768341 283.162781,288.455231 
	C285.181732,287.760315 286.587860,287.374512 287.993988,286.988708 
	C288.874023,286.916962 289.754059,286.845245 291.208557,286.496765 
	C292.505859,286.107910 293.228729,285.995850 293.951599,285.883759 
	C294.840820,285.860596 295.730011,285.837463 297.280518,285.528259 
	C304.945801,284.791351 311.949799,284.340454 318.953827,283.889587 
z"/>
<path fill="#FFFEFE" opacity="1.000000" stroke="none" 
	d="
M724.925598,719.050049 
	C725.586548,719.604004 726.247559,720.157959 727.179138,721.311157 
	C727.376099,749.252380 727.302368,776.594360 727.228638,803.936279 
	C724.797302,813.340515 719.469604,819.908997 708.823853,822.281250 
	C705.933533,822.661072 703.774902,822.822021 701.616333,822.822266 
	C578.402954,822.833984 455.189606,822.829895 331.976227,822.841248 
	C327.326996,822.841675 322.677734,822.978027 318.028503,823.050964 
	C313.595032,820.488403 309.161560,817.925842 304.397644,815.066895 
	C303.708252,814.475769 303.349304,814.181030 302.990356,813.886230 
	C302.990387,813.886230 303.033478,814.049988 303.026917,813.722900 
	C302.690582,813.208862 302.360748,813.021973 302.030945,812.835083 
	C302.030945,812.835083 302.175232,813.063416 302.243408,812.660278 
	C301.925262,811.752197 301.538940,811.247253 301.152618,810.742249 
	C301.152618,810.742249 301.135864,810.916260 301.128448,810.529785 
	C300.400665,806.762207 299.080109,803.385498 299.055603,799.999390 
	C298.872650,774.702515 298.938782,749.403748 298.959595,724.105591 
	C298.960693,722.790894 299.260315,721.476501 299.420959,720.161926 
	C299.420959,720.161926 299.216736,720.303284 299.479858,720.313232 
	C299.742981,720.323242 299.999756,719.999268 299.999756,719.999268 
	C300.346405,720.001038 300.633759,719.871338 301.410065,719.348694 
	C442.947418,719.074768 583.936523,719.062439 724.925598,719.050049 
z"/>
<path fill="#C65208" opacity="1.000000" stroke="none" 
	d="
M301.348267,683.293091 
	C437.845306,683.026428 574.670044,683.011658 711.494812,682.996399 
	C715.994507,682.995911 720.494263,682.990112 725.457031,682.968384 
	C724.290222,683.299316 722.660461,683.953857 721.030396,683.954468 
	C582.891479,684.002991 444.752594,684.002502 306.613708,683.983521 
	C304.967773,683.983276 303.321869,683.697449 301.348267,683.293091 
z"/>
<path fill="#C54A02" opacity="1.000000" stroke="none" 
	d="
M724.881531,718.772461 
	C583.936523,719.062439 442.947418,719.074768 301.492554,719.120605 
	C302.756012,718.783752 304.485107,718.089905 306.214478,718.089233 
	C444.461365,718.037170 582.708313,718.037964 720.955200,718.056152 
	C722.249268,718.056274 723.543396,718.342285 724.881531,718.772461 
z"/>
<path fill="#C54A02" opacity="1.000000" stroke="none" 
	d="
M318.371338,823.277100 
	C322.677734,822.978027 327.326996,822.841675 331.976227,822.841248 
	C455.189606,822.829895 578.402954,822.833984 701.616333,822.822266 
	C703.774902,822.822021 705.933533,822.661072 708.561646,822.500061 
	C707.190491,822.940308 705.350037,823.905701 703.508972,823.906677 
	C576.557373,823.974792 449.605652,823.967224 322.653961,823.944214 
	C321.340668,823.944031 320.027405,823.656555 318.371338,823.277100 
z"/>
<path fill="#CC661F" opacity="1.000000" stroke="none" 
	d="
M287.289062,544.811768 
	C290.942078,545.248962 294.813538,546.000854 298.939270,546.802063 
	C298.939270,591.382446 298.939270,635.714722 298.911926,680.513611 
	C298.257782,678.922546 297.089874,676.866211 297.084198,674.806763 
	C296.976227,635.643311 297.005859,596.479431 297.005188,557.315674 
	C297.005035,548.972412 296.998535,548.981873 289.161102,546.182068 
	C288.560822,545.967651 288.056458,545.484680 287.289062,544.811768 
z"/>
<path fill="#CC661F" opacity="1.000000" stroke="none" 
	d="
M299.041077,720.311401 
	C299.260315,721.476501 298.960693,722.790894 298.959595,724.105591 
	C298.938782,749.403748 298.872650,774.702515 299.055603,799.999390 
	C299.080109,803.385498 300.400665,806.762207 301.215759,810.534424 
	C299.879669,806.698425 297.280090,802.490173 297.211029,798.240906 
	C296.813721,773.792725 296.987152,749.334778 297.084900,724.880615 
	C297.090790,723.405273 298.112305,721.933960 299.041077,720.311401 
z"/>
<path fill="#C65208" opacity="1.000000" stroke="none" 
	d="
M728.026855,680.722168 
	C727.687683,646.320801 727.624634,611.935364 727.571350,577.549866 
	C727.555969,567.589050 727.568970,557.628235 727.568970,547.254944 
	C728.724731,546.961365 729.923279,546.656921 731.560669,546.353760 
	C730.991516,548.968201 729.117310,551.577332 729.105042,554.195068 
	C728.915833,594.635010 728.976501,635.075989 728.936890,675.516785 
	C728.935242,677.257385 728.526062,678.997559 728.026855,680.722168 
z"/>
<path fill="#CC661F" opacity="1.000000" stroke="none" 
	d="
M831.158569,466.812195 
	C838.871704,445.959106 840.100708,424.105072 839.046814,401.494385 
	C839.755859,402.484680 840.948730,403.940918 840.938049,405.388275 
	C840.877319,413.597992 840.978943,421.851105 840.154968,430.001465 
	C839.280334,438.653503 837.696472,447.262848 835.892578,455.778595 
	C835.093872,459.549225 832.991272,463.043640 831.158569,466.812195 
z"/>
<path fill="#CC661F" opacity="1.000000" stroke="none" 
	d="
M189.176605,387.362305 
	C186.787994,403.294037 185.834885,419.324646 188.097794,435.288605 
	C189.387817,444.389191 192.128998,453.284088 194.303360,462.606873 
	C193.392563,461.531403 191.783508,460.234650 191.496048,458.691681 
	C189.493881,447.944580 186.793976,437.201324 186.181595,426.351624 
	C185.302475,410.776337 184.911865,395.016052 189.848068,379.808228 
	C190.342773,378.284119 191.218781,376.883759 192.253677,375.233459 
	C191.716156,378.437195 190.842819,381.833374 189.730560,385.816711 
	C189.386627,386.723297 189.281616,387.042816 189.176605,387.362305 
z"/>
<path fill="#C65208" opacity="1.000000" stroke="none" 
	d="
M727.552368,803.748230 
	C727.302368,776.594360 727.376099,749.252380 727.409058,721.436096 
	C727.900879,722.619934 728.890869,724.276306 728.897400,725.936523 
	C728.993408,750.422302 728.976318,774.908691 728.909058,799.394653 
	C728.905212,800.784119 728.235779,802.171753 727.552368,803.748230 
z"/>
<path fill="#CC661F" opacity="1.000000" stroke="none" 
	d="
M544.161743,185.978333 
	C536.603943,185.453445 528.699585,184.430908 520.765442,184.080582 
	C512.511475,183.716141 504.228912,184.001068 495.494659,183.949341 
	C502.105469,183.271286 509.219604,181.863098 516.245728,182.214615 
	C525.467468,182.675964 534.619873,184.524261 544.161743,185.978333 
z"/>
<path fill="#CC661F" opacity="1.000000" stroke="none" 
	d="
M493.755005,184.028442 
	C485.429169,186.142853 476.645660,188.223022 467.463104,190.429932 
	C468.308380,189.526794 469.429504,187.836212 470.817627,187.577286 
	C478.274200,186.186447 485.797272,185.151825 493.755005,184.028442 
z"/>
<path fill="#C65208" opacity="1.000000" stroke="none" 
	d="
M721.741943,284.432312 
	C712.617676,284.600128 703.299194,284.446136 693.518799,284.354736 
	C694.237610,283.957520 695.412109,283.119263 696.600037,283.099701 
	C704.042114,282.977203 711.487610,283.001770 718.930786,283.084106 
	C719.806824,283.093811 720.675537,283.752594 721.741943,284.432312 
z"/>
<path fill="#C65208" opacity="1.000000" stroke="none" 
	d="
M344.174500,284.952271 
	C337.019348,284.764587 329.487793,284.369812 321.502716,283.929749 
	C328.632172,284.171356 336.215149,284.458252 344.174500,284.952271 
z"/>
<path fill="#C65208" opacity="1.000000" stroke="none" 
	d="
M318.614746,283.662384 
	C311.949799,284.340454 304.945801,284.791351 297.496613,285.266998 
	C304.126190,284.672882 311.200958,284.054047 318.614746,283.662384 
z"/>
<path fill="#C65208" opacity="1.000000" stroke="none" 
	d="
M357.737122,287.901611 
	C353.616089,287.372955 349.213287,286.595642 344.599579,285.464294 
	C348.744232,285.957794 353.099762,286.805359 357.737122,287.901611 
z"/>
<path fill="#CC661F" opacity="1.000000" stroke="none" 
	d="
M829.043945,471.772003 
	C829.261414,470.382263 829.820007,468.843475 830.646118,467.075134 
	C830.404114,468.438049 829.894592,470.030518 829.043945,471.772003 
z"/>
<path fill="#C65208" opacity="1.000000" stroke="none" 
	d="
M287.759125,286.793427 
	C286.587860,287.374512 285.181732,287.760315 283.408630,288.191223 
	C284.535889,287.690277 286.030060,287.144196 287.759125,286.793427 
z"/>
<path fill="#C65208" opacity="1.000000" stroke="none" 
	d="
M361.199951,288.904846 
	C360.459656,288.993164 359.379700,288.896759 358.095123,288.446106 
	C358.880463,288.301300 359.870361,288.510712 361.199951,288.904846 
z"/>
<path fill="#C65208" opacity="1.000000" stroke="none" 
	d="
M293.730743,285.691956 
	C293.228729,285.995850 292.505859,286.107910 291.413818,286.231201 
	C291.866425,285.994995 292.688141,285.747559 293.730743,285.691956 
z"/>
<path fill="#CC661F" opacity="1.000000" stroke="none" 
	d="
M301.180542,811.075195 
	C301.538940,811.247253 301.925262,811.752197 302.357849,812.588623 
	C302.005585,812.416077 301.606995,811.912109 301.180542,811.075195 
z"/>
<path fill="#CC661F" opacity="1.000000" stroke="none" 
	d="
M299.869537,719.938293 
	C299.999756,719.999268 299.742981,720.323242 299.555542,720.411743 
	C299.310333,720.130554 299.434052,719.922913 299.869537,719.938293 
z"/>
<path fill="#CC661F" opacity="1.000000" stroke="none" 
	d="
M302.211884,813.041626 
	C302.360748,813.021973 302.690582,813.208862 303.108978,813.701965 
	C302.929321,813.754822 302.661102,813.501465 302.211884,813.041626 
z"/>
<path fill="#CC661F" opacity="1.000000" stroke="none" 
	d="
M303.188293,814.145020 
	C303.349304,814.181030 303.708252,814.475769 304.076233,815.137451 
	C303.852234,815.137573 303.619232,814.770691 303.188293,814.145020 
z"/>
<path fill="#D3793B" opacity="1.000000" stroke="none" 
	d="
M189.400146,387.200104 
	C189.281616,387.042816 189.386627,386.723297 189.650116,386.203430 
	C189.746964,386.348022 189.685318,386.692963 189.400146,387.200104 
z"/>
</svg>