<?xml version="1.0" encoding="utf-8" ?><svg xmlns="http://www.w3.org/2000/svg" xmlns:xlink="http://www.w3.org/1999/xlink" width="970" height="970" viewBox="0 0 970 970"><path fill="#FF6B00" d="M487.067 115.29C495.982 114.843 505.263 115.673 514.042 117.15C541.664 121.796 568.729 135.331 588.117 155.746C596.373 164.44 603.195 174.076 610.132 183.812C615.744 181.169 621.457 179.719 627.563 178.684C649.837 175.046 672.649 180.273 691.116 193.246C710.966 207.397 725.412 229.342 729.337 253.512C733.459 278.087 727.461 303.285 712.709 323.367C694.984 347.646 672.06 359.168 642.857 363.821C640.001 379.134 639.851 395.326 640.869 410.832C641.625 421.345 642.705 431.832 644.107 442.279C646.034 457.141 654.506 504.712 647.73 516.167C646.113 518.902 643.432 521.085 640.279 521.741C634.513 522.94 630.781 517.335 626.954 514.058C625.145 512.509 623.109 511.167 621.082 509.922C610.594 503.479 599.278 500.524 587.32 498.264C550.673 491.338 512.296 494.266 476.223 503.033C455.708 508.187 429.787 517.063 413.144 530.392C407.324 535.052 402.519 547.603 397.208 549.321C393.951 550.374 390.443 549.497 387.506 547.936C366.838 536.954 370.159 489.222 369.873 469.083C369.712 455.518 369.213 441.959 368.379 428.419C367.384 413.472 364.739 399.783 360.471 385.413C342.782 391.619 324.619 392.82 306.695 386.653C283.287 378.743 264.136 361.6 253.691 339.209C243.327 317.474 242.67 290.671 250.828 268.126C259.116 244.885 276.332 225.91 298.66 215.406C319.035 206.001 342.243 204.351 363.364 212.102C369.361 192.484 378.036 174.679 391.765 159.252C416.874 131.036 449.924 117.502 487.067 115.29Z"/><path fill="white" d="M487.929 135.676C504.314 135.129 519.589 138.198 534.721 144.491C565.63 157.346 587.725 181.409 600.479 212.05C612.907 205.477 623.906 200.392 638.23 199.756C655.866 198.972 673.005 204.647 686.105 216.66C700.151 229.464 708.496 247.351 709.284 266.34C709.96 286.311 702.174 304.055 688.576 318.488C672.846 335.183 650.022 345.103 627.147 345.873C621.098 379.064 623.321 412.093 627.702 445.32C623.814 443.569 619.843 442.029 615.876 440.467C615.055 428.495 612.813 416.292 611.292 404.362C609.349 389.118 608.184 371.666 604.134 356.992C604.871 384.235 608.147 411.468 608.254 438.716C604.04 436.942 599.411 435.544 594.979 434.446C591.639 413.39 589.352 392.195 586.281 371.099C585.189 363.599 584.753 355.611 582.81 348.299C581.994 358.037 583.009 368.224 583.512 377.986C584.576 395.959 585.504 413.94 586.298 431.927C581.514 430.534 576.718 429.613 571.794 428.887C568.967 409.675 567.166 390.278 564.842 370.995C563.788 362.25 563.176 352.93 561.131 344.365C560.692 352.96 561.222 361.675 561.466 370.276C562.109 389.645 563.102 409.001 564.446 428.334C558.676 427.44 552.909 426.797 547.101 426.214C545.942 412.48 544.629 398.656 542.84 384.991C541.144 372.032 538.997 359.102 537.609 346.109C535.955 354.236 537.734 368.551 538.152 377.097C538.815 393.484 539.609 409.866 540.534 426.24C534.056 426.062 527.576 425.966 521.095 425.952C520.641 414.691 519.169 403.409 518.011 392.201C515.664 377.458 515.72 361.989 512.014 347.489C511.616 357.874 512.512 368.468 512.966 378.851C513.678 394.766 514.29 410.686 514.801 426.609C505.92 426.96 496.721 428.233 487.956 429.674C486.543 416.165 484.656 402.705 483.082 389.213C481.714 377.495 481.035 365.217 477.916 353.83C479.15 379.631 479.784 405.516 481.733 431.276C473.263 433.463 464.763 435.527 456.233 437.468C452.29 413.535 452.156 388.855 447.241 365.039C446.721 373.025 447.613 381.327 447.996 389.325C448.799 406.142 449.901 422.948 450.562 439.77C442.88 442.263 435.386 445.24 427.87 448.187C425.576 427.86 424.049 407.183 420.676 387.015C420.397 395.211 421.139 403.368 421.68 411.538C422.546 424.619 423.49 437.762 423.488 450.876C407.21 459.787 394.775 468.624 384.906 484.648C385.348 473.483 384.337 462.25 383.836 451.099C382.81 428.268 382.056 406.209 377.46 383.75C376.533 379.224 375.78 374.394 374.24 370.032C373.444 367.775 372.307 365.161 369.975 364.148C365.201 362.075 357.388 366.903 353.008 368.663C337.913 374.73 321.902 373.405 307.094 366.929C289.312 359.153 274.824 343.531 267.909 325.443C260.972 307.297 261.438 285.033 269.552 267.317C277.258 250.491 292.261 236.325 309.686 230.003C324.649 224.574 342.647 224.392 357.771 229.279C365.028 231.625 371.867 235.07 378.748 238.323C382.15 213.151 391.836 190.156 409.159 171.315C429.662 149.014 457.88 136.902 487.929 135.676Z"/><path fill="#FF6B00" d="M481.604 150.808C494.86 149.292 509.394 151.266 521.958 155.636C546.449 164.155 565.665 182.393 576.912 205.686C572.095 200.897 566.84 196.571 561.216 192.763C532.736 173.55 503.235 167.941 469.55 174.381C465.512 175.232 461.418 176.439 457.525 177.801C434.977 185.691 416.804 200.517 404.753 221.17C402.199 225.547 400.231 230.151 398.024 234.7C401.501 216.354 407.371 198.51 419.408 183.892C434.929 165.048 457.303 153.146 481.604 150.808Z"/><path fill="#FF6B00" d="M522.277 219.555C524.31 221.348 525.684 225.052 526.78 227.487C536.576 249.249 539.373 276.742 530.737 299.35C526.307 310.949 517.52 323.056 505.847 328.153C497.107 331.97 486.631 331.531 477.9 327.98C462.365 321.662 449.137 309.256 442.686 293.771C441.651 290.973 440.614 287.979 440.014 285.056C439.428 282.201 439.052 278.894 440.832 276.37C442.031 274.64 443.907 273.498 445.994 273.227C448.363 272.932 450.72 273.942 452.267 275.729C454.889 278.757 456.144 283.271 457.661 286.946C461.277 295.698 467.243 304.238 474.721 310.119C480.257 314.473 487.684 317.88 494.868 316.878C501.275 315.985 506.528 311.47 510.318 306.475C528.734 282.197 525.995 247.955 522.277 219.555Z"/><path fill="#FF6B00" d="M690.771 264.148C691.719 268.892 691.305 275.257 690.482 280.022C687.603 296.693 675.368 310.784 661.867 320.19C638.351 336.573 605.067 342.242 576.982 337.168C576.516 337.043 576.076 336.783 575.642 336.574C576.576 335.593 597.931 331.209 601.306 330.313C631.911 322.191 661.564 306.876 680.73 280.892C684.565 275.694 687.524 269.729 690.771 264.148Z"/><path fill="#FF6B00" d="M332.465 311.621C333.642 311.622 334.654 311.627 335.753 312.105C339.361 313.675 345.679 321.285 348.932 324.102C374.471 346.215 415.253 351.686 448.038 349.18C445.016 350.668 442.077 351.869 438.871 352.904C421.075 358.429 399.956 358.708 381.764 354.659C364.066 350.719 339.277 339.82 329.454 323.589C328.113 321.374 327.107 318.72 327.854 316.121C328.534 313.754 330.438 312.729 332.465 311.621Z"/><path fill="#FF6B00" d="M622.017 261.413C623.838 261.41 625.368 261.526 626.785 262.837C628.332 264.269 628.797 266.399 628.772 268.435C628.631 280.203 616.622 295.609 608.653 303.437C591.343 320.441 570.393 327.59 546.516 327.365C543.186 327.312 539.85 327.133 536.521 327.007C565.053 319.441 593.287 304.626 609.945 279.386C613.562 273.904 616.27 264.802 622.017 261.413Z"/><path fill="white" d="M423.48 461.756L424.107 462.287C425.571 475.814 425.66 489.725 426.672 503.331C417.382 506.88 406.372 513.616 399.323 520.661C396.148 523.834 393.536 527.703 390.532 531.062L389.724 531.066C389.401 530.454 389.094 529.834 388.804 529.206C384.082 518.917 382.7 503.511 386.67 492.781C392.702 476.478 408.754 468.604 423.48 461.756Z"/><path fill="white" d="M480.872 443.391L481.686 443.483C482.948 445.639 484.593 479.921 484.964 485.213C477.122 487.155 469.231 488.724 461.443 490.911L460.623 491.055L460.059 490.634C458.605 477.116 458.288 463.283 457.422 449.707C465.171 447.397 473.052 445.443 480.872 443.391Z"/><path fill="white" d="M510.384 438.776L515.275 438.461C515.885 452.616 516.699 466.761 517.716 480.893C510.795 481.293 503.996 481.968 497.171 483.232C496.122 483.372 495.396 483.413 494.361 483.171C492.996 479.021 493.183 473.125 492.711 468.709C491.728 459.806 490.634 450.916 489.429 442.04C496.371 440.684 503.323 439.321 510.384 438.776Z"/><path fill="white" d="M450.411 451.435C450.439 451.453 450.473 451.464 450.496 451.489C452.219 453.369 453.321 487.425 453.725 493.099C446.574 494.783 439.51 497.957 432.677 500.619C431.575 495.312 431.467 489.551 431.074 484.15C430.419 475.435 429.827 466.715 429.3 457.991C436.404 456.226 443.41 453.607 450.411 451.435Z"/><path fill="white" d="M524.142 437.383C529.579 437.159 534.974 437.224 540.412 437.341C540.839 451.258 542.141 465.151 543.067 479.039L541.954 479.455L526.51 479.948C526.187 474.198 522.125 440.241 522.993 437.775L524.142 437.383Z"/><path fill="white" d="M548.42 437.478C553.969 437.599 559.431 438.09 564.948 438.645C565.263 452.411 566.447 466.274 567.211 480.028C562.735 480.696 556.971 479.761 552.394 479.558C550.986 465.54 549.661 451.513 548.42 437.478Z"/><path fill="white" d="M572.43 439.876C577.136 440.176 581.956 441.415 586.523 442.545C587.997 455.823 588.383 469.398 589.235 482.739C585.24 482.041 581.271 481.439 577.238 481.005C575.621 467.27 574.456 453.575 572.43 439.876Z"/><path fill="white" d="M595.891 445.045C600.25 446.527 604.618 447.978 608.997 449.399C609.584 462.025 610.341 474.785 611.811 487.338C607.815 486.136 603.766 485.137 599.72 484.116C598.126 471.125 596.85 458.098 595.891 445.045Z"/><path fill="white" d="M617.282 452.46C621.171 454.055 625.12 456.995 628.827 459.086C630.777 471.368 631.874 483.77 632.113 496.203C628.668 494.431 625.168 492.769 621.618 491.22C618.992 478.76 618.532 465.17 617.282 452.46Z"/><path fill="#FF6B00" d="M517.655 627.854C537.99 610.32 559.697 594.059 580.734 577.367C596.897 564.542 612.563 551.109 628.638 538.173C636.405 531.932 644.206 525.733 652.041 519.577C659.446 513.747 666.753 508.392 673.097 501.328C681.872 491.556 689.597 480.585 690.57 467.093C691.33 456.544 689.931 446.251 691.567 435.663C697.607 396.558 725.397 363.698 754.224 338.418C786.863 309.795 839.393 282.332 883.857 285.426C899.584 286.52 915.208 293.325 925.533 305.458C935.941 317.689 937.892 333.987 936.598 349.451C935.241 365.67 930.071 380.599 923.526 395.355C909.211 427.629 888.698 456.506 861.558 479.241C832.333 503.722 792.611 521.696 753.88 518.397C745.87 517.715 738.701 514.824 730.918 513.708C709.947 510.703 690.912 528.011 676.14 540.324C662.596 551.614 649.711 563.686 636.673 575.548C617.627 592.876 598.53 610.36 580.877 629.124C595.99 624.417 611.116 619.34 625.564 612.831C633.319 609.338 640.796 605.246 648.361 601.366C682.664 622.007 712.781 652.534 733.921 686.465C737.897 692.846 741.344 699.622 744.878 706.257C693.257 689.469 652.181 704.184 601.378 713.218C605.106 716.828 609.848 719.717 614.024 722.821L636.67 739.863C649.572 749.553 662.609 759.094 675.408 768.916C683.534 775.152 691.425 781.728 699.634 787.847C695.631 806.045 685.059 824.823 669.07 835.054C660.21 840.723 649.511 844.507 638.987 845.217C621.36 824.938 602.479 805.802 583.624 786.662L540.509 742.833C531.084 733.384 520.817 719.934 510.528 712.105C505.726 708.451 499.366 707.512 493.835 705.38C470.489 726.152 448.525 748.681 426.358 770.687L380.278 815.764L351.854 844.209C348.51 847.521 345.307 851.135 341.795 854.258C325.252 851.253 312.766 844.069 303.086 830.197C295.278 819.008 291.455 807.096 290.252 793.584C304.129 781.61 318.993 770.789 333.3 759.347C352.036 744.361 370.313 728.805 389.088 713.85C403.749 702.173 419.335 690.853 433.044 678.065C422.109 673.403 410.945 669.298 399.594 665.766C357.135 652.3 320.457 650.551 278.499 666.998C243.353 680.775 213.363 702.847 186.72 729.316C179.854 736.137 173.538 743.483 166.813 750.438C175.233 697.081 204.161 651.552 247.844 619.785C276.023 599.287 309.846 587.993 344.688 587.445C354.776 587.242 364.811 588.103 374.86 588.875C361.759 575.401 346.773 563.168 332.768 550.597C322.065 540.848 311.263 531.206 300.366 521.674C290.567 513.083 280.903 504.065 269.473 497.643C261.364 493.087 252.479 491.196 243.315 490.199C255.003 485.742 266.288 476.248 273.983 466.485C275.57 473.689 278.884 480.235 284 485.588C290.228 492.105 298.314 497.58 305.425 503.119C321.585 515.521 337.826 527.817 354.146 540.008C374.543 555.345 394.818 570.724 415.492 585.69C421.587 590.102 427.266 595.307 433.6 599.347C440.686 603.867 459.011 607.703 467.95 610.589C479.182 614.215 490.238 618.37 501.355 622.327C506.756 624.25 512.278 625.887 517.655 627.854Z"/><path fill="white" d="M869.042 298.107C872.602 297.722 876.433 297.691 880.01 297.748C892.524 297.947 904.893 301.079 913.772 310.428C921.917 319.003 923.626 330.626 923.259 342.029C921.92 383.568 886.241 435.513 856.694 463.401C830.334 488.281 794.726 505.826 757.893 504.807C744.735 503.487 730.108 500.062 719.713 491.394C709.041 482.496 705.184 469.004 704.009 455.583C701.464 426.519 719.628 396.558 737.657 374.977C768.778 337.725 819.614 302.511 869.042 298.107Z"/><path fill="#FF6B00" d="M903.158 356.096C903.262 358.565 901.812 361.877 901.026 364.199C889.507 398.187 865.09 436.156 837.341 459.184C828.53 466.457 818.872 472.636 808.576 477.587C785.064 489.153 763.05 492.085 738.077 483.605C735.899 482.682 733.928 481.566 731.901 480.362C785.985 465.434 834.756 435.541 872.604 394.123C883.624 382.075 893.085 368.894 903.158 356.096Z"/><path fill="white" d="M342.361 603.613C384.612 601.641 432.775 613.968 472.502 627.818C491.548 634.457 510.613 642.51 530.457 646.408C563.941 652.986 621.017 638.41 649.538 619.254C677.132 636.975 695.301 656.557 714.555 682.694C690.399 679.589 670.051 678.76 645.858 682.543C611.668 687.888 581.845 698.484 546.456 696.528C512.443 693.799 487.238 680.233 456.727 666.635C423.476 651.816 389.276 638.647 352.652 636.057C319.029 633.679 290.492 641.723 260.34 655.83C247.791 661.701 235.656 668.229 224.351 676.277C215.945 682.261 208.009 689.474 200.222 696.242C207.425 682.413 217.176 669.818 227.469 658.16C256.689 625.065 298.636 606.268 342.361 603.613Z"/><path fill="white" d="M446.888 684.295C453.474 687.364 460.455 690.189 466.737 693.823C459.838 698.721 454.059 705.38 447.857 711.117L409.995 745.625C380.658 772.464 349.997 798.075 321.522 825.832L320.49 826.852C319.636 827.052 319.695 827.207 318.854 826.736C311.393 822.56 305.502 807.487 303.183 799.561C317.383 789.799 330.47 777.71 343.911 766.891L391.11 729.319C409.632 714.282 427.955 698.801 446.888 684.295Z"/><path fill="white" d="M530.741 714.678C540.007 715.519 549.32 715.837 558.611 716.27C577.783 729.895 595.636 746.123 613.538 761.356C633.651 778.47 654.338 795.306 673.42 813.557C670.686 817.04 667.646 819.937 664.168 822.666C658.063 826.847 651.69 829.522 644.653 831.749C640.627 827.633 636.911 823.157 632.989 818.932L606.476 790.795C581.67 764.99 556.421 739.614 530.741 714.678Z"/><path fill="white" d="M695.872 492.392L696.756 493.736C699.268 497.569 701.881 499.824 705.584 502.429C690.936 511.804 676.742 521.726 663.358 532.874C655.352 539.542 647.841 546.779 639.968 553.602C625.337 566.282 610.52 578.86 596.284 591.983L567.307 618.677C562.408 623.126 557.59 627.863 552.364 631.913C548.822 631.961 545.26 631.821 541.718 631.758C538.591 631.553 535.464 631.368 532.335 631.201C538.233 626.326 544.446 621.772 550.455 617.028L585.32 589.131C600.237 577.147 614.726 564.581 629.578 552.501C652.422 533.921 678.557 516.514 695.872 492.392Z"/><path fill="#FF6B00" d="M243.315 490.199C234.154 491.518 226.446 494.504 217.642 496.924C205.215 500.341 191.206 499.657 179.135 495.185C162.221 488.92 147.155 475.794 134.956 462.768C113.553 439.912 94.9801 410.685 78.9081 383.859C74.1251 375.875 69.0499 368.088 64.416 360.01C56.4778 346.171 49.4158 332.09 42.4596 317.741C39.7162 312.082 36.3014 306.404 33.8557 300.647C32.9336 298.476 32.1179 294.712 33.226 292.509C33.5959 291.774 33.8829 291.908 34.6067 291.719C36.862 292.566 38.4153 294.46 39.9402 296.257C46.8707 304.421 53.0025 313.467 59.5503 321.96C69.6837 335.104 79.4865 348.503 89.7403 361.552C96.0186 369.542 102.633 377.241 109.076 385.096C119.062 397.271 154.845 443.585 169.144 444.451C170.782 444.55 171.505 444.006 172.614 442.96C173.114 439.67 167.695 432.165 165.895 429.384C156.75 415.255 146.013 401.926 136.165 388.254C120.936 367.112 106.164 345.656 90.4633 324.856L68.4955 295.993C63.8032 289.931 58.4818 283.876 54.4985 277.333C53.5827 275.829 53.3295 274.935 53.7325 273.161C54.6395 271.936 55.1839 271.747 56.567 271.276C58.6888 271.301 60.7275 273.761 62.1414 275.213C76.2469 289.7 88.7774 305.88 102.239 320.97C119.167 339.946 136.921 358.174 153.65 377.332C161.982 386.873 191.989 423.232 200.31 427.687C201.65 428.405 202.516 428.466 203.939 428.011C205.854 425.625 204.617 422.084 203.49 419.573C197.801 406.888 187.647 395.192 179.16 384.279L150.646 347.98C134.795 327.988 119.56 307.473 103.747 287.452C100.217 282.982 78.1717 257.627 78.6653 254.491C78.8333 253.424 79.6658 252.226 80.5974 251.684C82.6674 250.48 84.1439 252.033 85.5557 253.391C98.0123 265.375 109.539 278.431 121.445 290.96L151.235 321.689C163.139 334.1 174.83 346.647 186.91 358.897C196.862 368.989 206.467 380.348 217.271 389.492C219.99 391.792 223.467 394.344 226.992 395.133C228.066 395.374 228.24 395.338 229.118 394.781C229.219 394.313 229.271 394.179 229.296 393.733C229.558 388.993 223.986 378.481 221.406 374.441C208.873 354.815 192.514 336.92 177.208 319.442C164.878 305.36 152.835 291.128 140.183 277.317C128.883 264.982 116.615 253.133 106.136 240.1C104.319 237.84 101.704 235.238 102.44 232.084C102.736 230.817 102.932 230.665 103.972 230.053C110.817 230.168 174.656 287.281 183.919 295.705C202.153 312.289 220.056 329.026 237.05 346.895C247.179 357.546 257.586 368.572 265.432 381.07C272.608 392.5 278.057 405.141 279.195 418.705C279.693 425.307 279.332 431.946 278.12 438.455C276.414 447.602 273.442 456.42 273.943 465.848L273.983 466.485C266.288 476.248 255.003 485.742 243.315 490.199Z"/><path fill="white" d="M173.71 300.695C176.766 301.954 223.679 347.205 229.054 353.027C236.856 361.479 244.427 370.459 251.068 379.858C261.13 394.099 267.542 409.895 264.398 427.522C261.481 443.88 251.441 459.486 237.791 468.921C225.929 477.193 211.275 480.435 197.031 477.939C186.176 475.94 175.858 471.203 166.821 464.941C157.282 458.33 149.473 450.144 141.619 441.698C124.856 423.672 110.34 404.618 96.4277 384.305L96.5698 383.751C96.0848 383.26 96.3465 383.424 95.8247 383.202L96.2822 383.903C97.5761 383.807 104.274 392.703 105.782 394.495C123.026 414.98 140.205 435.015 162.081 450.715C164.621 452.274 167.176 453.782 169.953 454.886C173.773 456.404 178.15 457.275 182.037 455.488C183.949 454.609 185.462 452.981 186.063 450.947C190.062 437.401 157.728 402.491 150.341 389.923C153.93 392.916 156.97 397.584 160.025 401.168C169.014 411.712 182.502 428.253 194.207 435.797C198.128 438.324 202.934 440.05 207.618 438.897C210.577 438.169 212.876 436.179 214.429 433.606C217.094 429.194 217.039 424.741 215.707 419.857C211.59 404.766 190.774 380.907 180.51 368.4C178.331 365.746 173.516 361.193 172.755 358.035C174.339 358.553 178.256 363.791 179.55 365.18C188.48 374.847 197.664 384.276 207.093 393.456C211.353 397.614 215.586 402.179 220.386 405.704C223.033 407.648 225.935 409.439 229.269 409.783C231.819 410.046 234.458 409.47 236.433 407.77C238.825 405.711 239.734 402.513 239.789 399.455C239.966 389.508 233.557 379.442 228.677 371.184C213.291 345.144 194.507 322.588 173.71 300.695Z"/></svg>